<?xml version="1.0" encoding="UTF-8" standalone="no"?>
<!-- Created with Inkscape (http://www.inkscape.org/) -->

<svg
   xmlns:dc="http://purl.org/dc/elements/1.1/"
   xmlns:cc="http://creativecommons.org/ns#"
   xmlns:rdf="http://www.w3.org/1999/02/22-rdf-syntax-ns#"
   xmlns:svg="http://www.w3.org/2000/svg"
   xmlns="http://www.w3.org/2000/svg"
   version="1.1"
   width="200"
   height="48"
   id="svg3200">
  <metadata
     id="metadata3220">
    <rdf:RDF>
      <cc:Work
         rdf:about="">
        <dc:format>image/svg+xml</dc:format>
        <dc:type
           rdf:resource="http://purl.org/dc/dcmitype/StillImage" />
        <dc:title></dc:title>
      </cc:Work>
    </rdf:RDF>
  </metadata>
  <defs
     id="defs3218" />
  <g
     id="g3202">
    <title
       id="title3204">background</title>
    <g
       id="canvasGrid"
       style="display:none;overflow:visible">
      <rect
         width="200"
         height="48"
         x="0"
         y="0"
         id="rect3207"
         style="fill:url(#gridpattern);stroke-width:0" />
    </g>
  </g>
  <g
     id="g3209">
    <title
       id="title3211">Layer 1</title>
    <g
       id="svg_2"
       style="font-size:20px;font-style:italic;font-weight:normal;text-anchor:start;fill:#666666;stroke:#000000;stroke-width:0;font-family:Ubuntu">
      <path
         d="m 21.48,22.88 c 0.159992,1.1e-5 0.339992,0.0067 0.54,0.02 0.199992,0.01334 0.393325,0.04001 0.58,0.08 0.199991,0.02668 0.379991,0.06001 0.54,0.1 0.159991,0.02668 0.279991,0.06001 0.36,0.1 l -0.54,1.62 c -0.266675,-0.106658 -0.573342,-0.186658 -0.92,-0.24 -0.346674,-0.05332 -0.680007,-0.07999 -1,-0.08 -0.280007,9e-6 -0.560006,0.02001 -0.84,0.06 -0.266673,0.04001 -0.500006,0.09334 -0.7,0.16 l -2.12,8.8 -1.86,0 2.4,-10 c 0.533329,-0.186656 1.106662,-0.333323 1.72,-0.44 0.613327,-0.119989 1.22666,-0.179989 1.84,-0.18"
         id="path3223"
         style="font-size:20px;font-style:italic;font-weight:normal;text-anchor:start;fill:#666666;stroke:#000000;stroke-width:0;font-family:Ubuntu" />
      <path
         d="m 24.801875,33.5 -1.86,0 2.5,-10.4 1.86,0 -2.5,10.4 m 2.16,-12.28 c -0.306672,1.2e-5 -0.566672,-0.09332 -0.78,-0.28 -0.200005,-0.186654 -0.300004,-0.446654 -0.3,-0.78 -4e-6,-0.426653 0.133329,-0.759986 0.4,-1 0.266662,-0.253319 0.566661,-0.379985 0.9,-0.38 0.306661,1.5e-5 0.56666,0.100015 0.78,0.3 0.213327,0.186681 0.319993,0.453347 0.32,0.8 -7e-6,0.400013 -0.140007,0.72668 -0.42,0.98 -0.280006,0.240012 -0.580006,0.360012 -0.9,0.36"
         id="path3225"
         style="font-size:20px;font-style:italic;font-weight:normal;text-anchor:start;fill:#666666;stroke:#000000;stroke-width:0;font-family:Ubuntu" />
      <path
         d="m 31.462812,33.78 c -1.000004,0 -1.733336,-0.22 -2.2,-0.66 -0.466669,-0.439999 -0.700002,-1.079999 -0.7,-1.92 -2e-6,-0.546664 0.09333,-1.246663 0.28,-2.1 l 2.140001,-8.9 1.939999,-0.32 -0.78,3.22 3.54,0 -0.379999,1.56 -3.54,0 -1.100001,4.6 c -0.160004,0.62667 -0.240004,1.173336 -0.24,1.64 -4e-6,0.440002 0.119996,0.760002 0.36,0.96 0.239996,0.186668 0.639995,0.280001 1.200001,0.28 0.38666,10e-7 0.76666,-0.06 1.14,-0.18 0.373326,-0.133332 0.659992,-0.253332 0.86,-0.36 l 0.14,1.58 c -0.200008,0.12 -0.540008,0.246667 -1.020001,0.38 -0.480006,0.146666 -1.026672,0.22 -1.64,0.22"
         id="path3227"
         style="font-size:20px;font-style:italic;font-weight:normal;text-anchor:start;fill:#666666;stroke:#000000;stroke-width:0;font-family:Ubuntu" />
      <path
         d="m 38.119062,28.04 c 0.773329,-0.02666 1.479995,-0.07333 2.120001,-0.14 0.639993,-0.07999 1.193325,-0.206661 1.659999,-0.38 0.466659,-0.186661 0.826658,-0.433327 1.08,-0.74 0.266658,-0.30666 0.399991,-0.706659 0.400001,-1.2 -1e-5,-0.119992 -0.02668,-0.246659 -0.08,-0.38 -0.04001,-0.133325 -0.120009,-0.253325 -0.24,-0.36 -0.106675,-0.119991 -0.260008,-0.213324 -0.459999,-0.28 -0.200009,-0.07999 -0.446675,-0.119991 -0.740001,-0.12 -0.466674,9e-6 -0.906673,0.100009 -1.32,0.3 -0.400006,0.200009 -0.760005,0.466675 -1.079999,0.8 -0.320006,0.320008 -0.593339,0.700007 -0.82,1.14 -0.226672,0.426673 -0.400005,0.880006 -0.520001,1.36 m 1.9,5.72 c -0.680005,0 -1.266671,-0.09333 -1.76,-0.28 -0.493337,-0.2 -0.906669,-0.466666 -1.24,-0.8 -0.333335,-0.346666 -0.580002,-0.746665 -0.739999,-1.2 -0.160003,-0.453331 -0.240003,-0.93333 -0.240001,-1.44 -2e-6,-0.933329 0.139998,-1.833328 0.420001,-2.7 0.279997,-0.86666 0.679996,-1.633326 1.199999,-2.3 0.519996,-0.666658 1.153329,-1.193324 1.900001,-1.58 0.74666,-0.39999 1.593326,-0.599989 2.54,-0.6 0.546658,1.1e-5 1.013324,0.07334 1.399999,0.22 0.399991,0.133344 0.71999,0.32001 0.960001,0.56 0.253322,0.24001 0.439989,0.520009 0.56,0.84 0.119988,0.306675 0.179988,0.626675 0.179999,0.96 -1.1e-5,0.626674 -0.113344,1.160007 -0.34,1.6 -0.226677,0.426673 -0.526676,0.786672 -0.899999,1.08 -0.373343,0.293338 -0.813343,0.520005 -1.32,0.68 -0.493342,0.160005 -1.013341,0.286671 -1.560001,0.38 -0.533339,0.09334 -1.080005,0.160004 -1.64,0.2 -0.546671,0.02667 -1.066671,0.05334 -1.559999,0.08 -0.01334,0.106671 -0.02,0.193337 -0.02,0.26 -3e-6,0.06667 -3e-6,0.120004 0,0.16 -3e-6,0.30667 0.03333,0.600003 0.100001,0.88 0.08,0.266669 0.219995,0.506669 0.42,0.72 0.199995,0.200002 0.473328,0.360002 0.819999,0.48 0.359995,0.120001 0.826661,0.180001 1.400001,0.18 0.253326,10e-7 0.513326,-0.02 0.78,-0.06 0.279992,-0.05333 0.539992,-0.113332 0.78,-0.18 0.253324,-0.08 0.473324,-0.153332 0.659999,-0.22 0.199992,-0.08 0.339991,-0.153331 0.420001,-0.22 l 0.159999,1.58 c -0.266675,0.146667 -0.700008,0.3 -1.299999,0.46 -0.586675,0.173333 -1.280007,0.26 -2.080001,0.26"
         id="path3229"
         style="font-size:20px;font-style:italic;font-weight:normal;text-anchor:start;fill:#666666;stroke:#000000;stroke-width:0;font-family:Ubuntu" />
      <path
         d="m 57.950625,22.88 c 0.586653,1.1e-5 1.079985,0.09334 1.48,0.28 0.413318,0.173343 0.739984,0.413343 0.98,0.72 0.253317,0.306676 0.433317,0.666676 0.54,1.08 0.10665,0.400008 0.159983,0.826674 0.16,1.28 -1.7e-5,0.29334 -0.02668,0.61334 -0.08,0.96 -0.04002,0.333339 -0.100017,0.660006 -0.18,0.98 l -1.28,5.32 -1.86,0 1.18,-4.92 c 0.06665,-0.306661 0.139985,-0.646661 0.22,-1.02 0.09332,-0.38666 0.139985,-0.76666 0.14,-1.14 -1.5e-5,-0.253326 -0.03335,-0.499992 -0.1,-0.74 -0.05335,-0.239992 -0.153348,-0.446658 -0.3,-0.62 -0.133348,-0.173325 -0.326681,-0.313325 -0.58,-0.42 -0.253347,-0.106658 -0.56668,-0.159991 -0.94,-0.16 -0.426679,9e-6 -0.840012,0.08668 -1.24,0.26 -0.400011,0.160009 -0.733344,0.326675 -1,0.5 0.02666,0.186675 0.04666,0.373341 0.06,0.56 0.02666,0.173341 0.03999,0.346674 0.04,0.52 -1.1e-5,0.306674 -0.02668,0.620007 -0.08,0.94 -0.04001,0.306673 -0.09334,0.613339 -0.16,0.92 l -1.28,5.32 -1.86,0 1.18,-4.92 c 0.06666,-0.306661 0.139991,-0.653328 0.22,-1.04 0.07999,-0.38666 0.119991,-0.773327 0.12,-1.16 -9e-6,-0.253326 -0.02668,-0.493326 -0.08,-0.72 -0.05334,-0.239992 -0.146675,-0.446658 -0.28,-0.62 -0.120008,-0.173325 -0.286675,-0.306658 -0.5,-0.4 -0.213341,-0.106658 -0.486674,-0.159991 -0.82,-0.16 -0.33334,9e-6 -0.660007,0.02001 -0.98,0.06 -0.306673,0.04001 -0.566672,0.09334 -0.78,0.16 l -2.12,8.8 -1.86,0 2.4,-10 c 0.599995,-0.186656 1.253328,-0.333323 1.96,-0.44 0.719993,-0.119989 1.359993,-0.179989 1.92,-0.18 0.559992,1.1e-5 1.033325,0.100011 1.42,0.3 0.386657,0.186677 0.693323,0.44001 0.92,0.76 0.133323,-0.09332 0.313323,-0.19999 0.54,-0.32 0.239989,-0.11999 0.506655,-0.233323 0.8,-0.34 0.306655,-0.106656 0.633321,-0.19999 0.98,-0.28 0.359987,-0.07999 0.726653,-0.119989 1.1,-0.12"
         id="path3231"
         style="font-size:20px;font-style:italic;font-weight:normal;text-anchor:start;fill:#666666;stroke:#000000;stroke-width:0;font-family:Ubuntu" />
      <path
         d="m 65.033125,28.04 c 0.773328,-0.02666 1.479994,-0.07333 2.12,-0.14 0.639993,-0.07999 1.193326,-0.206661 1.66,-0.38 0.466658,-0.186661 0.826658,-0.433327 1.08,-0.74 0.266657,-0.30666 0.399991,-0.706659 0.4,-1.2 -9e-6,-0.119992 -0.02668,-0.246659 -0.08,-0.38 -0.04001,-0.133325 -0.120009,-0.253325 -0.24,-0.36 -0.106676,-0.119991 -0.260009,-0.213324 -0.46,-0.28 -0.200008,-0.07999 -0.446675,-0.119991 -0.74,-0.12 -0.466674,9e-6 -0.906674,0.100009 -1.32,0.3 -0.400006,0.200009 -0.760006,0.466675 -1.08,0.8 -0.320005,0.320008 -0.593338,0.700007 -0.82,1.14 -0.226671,0.426673 -0.400004,0.880006 -0.52,1.36 m 1.9,5.72 c -0.680005,0 -1.266671,-0.09333 -1.76,-0.28 -0.493337,-0.2 -0.90667,-0.466666 -1.24,-0.8 -0.333336,-0.346666 -0.580002,-0.746665 -0.74,-1.2 -0.160002,-0.453331 -0.240002,-0.93333 -0.24,-1.44 -2e-6,-0.933329 0.139998,-1.833328 0.42,-2.7 0.279997,-0.86666 0.679997,-1.633326 1.2,-2.3 0.519996,-0.666658 1.153329,-1.193324 1.9,-1.58 0.74666,-0.39999 1.593326,-0.599989 2.54,-0.6 0.546658,1.1e-5 1.013324,0.07334 1.4,0.22 0.39999,0.133344 0.71999,0.32001 0.96,0.56 0.253323,0.24001 0.439989,0.520009 0.56,0.84 0.119989,0.306675 0.179989,0.626675 0.18,0.96 -1.1e-5,0.626674 -0.113344,1.160007 -0.34,1.6 -0.226677,0.426673 -0.526677,0.786672 -0.9,1.08 -0.373343,0.293338 -0.813342,0.520005 -1.32,0.68 -0.493341,0.160005 -1.013341,0.286671 -1.56,0.38 -0.53334,0.09334 -1.080006,0.160004 -1.64,0.2 -0.546672,0.02667 -1.066671,0.05334 -1.56,0.08 -0.01334,0.106671 -0.02,0.193337 -0.02,0.26 -4e-6,0.06667 -4e-6,0.120004 0,0.16 -4e-6,0.30667 0.03333,0.600003 0.1,0.88 0.08,0.266669 0.219996,0.506669 0.42,0.72 0.199995,0.200002 0.473329,0.360002 0.82,0.48 0.359994,0.120001 0.826661,0.180001 1.4,0.18 0.253327,10e-7 0.513326,-0.02 0.78,-0.06 0.279992,-0.05333 0.539992,-0.113332 0.78,-0.18 0.253325,-0.08 0.473325,-0.153332 0.66,-0.22 0.199991,-0.08 0.339991,-0.153331 0.42,-0.22 l 0.16,1.58 c -0.266676,0.146667 -0.700009,0.3 -1.3,0.46 -0.586674,0.173333 -1.280007,0.26 -2.08,0.26"
         id="path3233"
         style="font-size:20px;font-style:italic;font-weight:normal;text-anchor:start;fill:#666666;stroke:#000000;stroke-width:0;font-family:Ubuntu" />
      <path
         d="m 73.864688,33.76 c -0.373336,0 -0.666669,-0.1 -0.88,-0.3 -0.213335,-0.2 -0.320002,-0.493333 -0.320001,-0.88 -10e-7,-0.479999 0.139999,-0.846665 0.42,-1.1 0.293332,-0.266664 0.626665,-0.399998 1,-0.4 0.373331,2e-6 0.666664,0.106669 0.88,0.32 0.226663,0.200002 0.339996,0.500002 0.34,0.9 -4e-6,0.226668 -0.04667,0.433334 -0.14,0.62 -0.08,0.173334 -0.18667,0.326667 -0.319999,0.46 -0.133337,0.12 -0.28667,0.213333 -0.460001,0.28 -0.173336,0.06667 -0.346669,0.1 -0.519999,0.1"
         id="path3235"
         style="font-size:20px;font-style:italic;font-weight:normal;text-anchor:start;fill:#666666;stroke:#000000;stroke-width:0;font-family:Ubuntu" />
      <path
         d="m 80.346563,32.2 c 0.279995,10e-7 0.559995,-0.02667 0.839999,-0.08 0.293329,-0.05333 0.546662,-0.139998 0.76,-0.26 0.226661,-0.119998 0.406661,-0.279998 0.540001,-0.48 0.14666,-0.213331 0.219993,-0.473331 0.22,-0.78 -7e-6,-0.199997 -0.03334,-0.37333 -0.100001,-0.52 -0.06667,-0.159996 -0.173339,-0.306663 -0.319999,-0.44 -0.146673,-0.133329 -0.33334,-0.259996 -0.560001,-0.38 -0.213338,-0.133329 -0.473338,-0.279995 -0.78,-0.44 -0.306671,-0.146662 -0.58667,-0.293328 -0.84,-0.44 -0.253336,-0.146661 -0.480003,-0.319995 -0.679999,-0.52 -0.18667,-0.199994 -0.333337,-0.433327 -0.44,-0.7 -0.10667,-0.279993 -0.160003,-0.613326 -0.160001,-1 -2e-6,-0.999992 0.359998,-1.799991 1.080001,-2.4 0.719995,-0.613323 1.766661,-0.919989 3.139999,-0.92 0.639993,1.1e-5 1.199992,0.06668 1.68,0.2 0.493325,0.12001 0.833325,0.233344 1.02,0.34 l -0.7,1.52 c -0.186675,-0.106658 -0.486674,-0.219991 -0.899999,-0.34 -0.413341,-0.119991 -0.873341,-0.179991 -1.38,-0.18 -0.25334,9e-6 -0.506673,0.02668 -0.760001,0.08 -0.253338,0.05334 -0.486671,0.146676 -0.7,0.28 -0.200004,0.120009 -0.366671,0.286675 -0.5,0.5 -0.120004,0.200008 -0.180004,0.446674 -0.179999,0.74 -5e-6,0.360007 0.139995,0.660007 0.419999,0.9 0.279995,0.226673 0.699995,0.466673 1.26,0.72 0.346661,0.160006 0.653327,0.326672 0.92,0.5 0.279993,0.160005 0.513326,0.346672 0.700001,0.56 0.199992,0.200005 0.346658,0.440004 0.439999,0.72 0.106659,0.280004 0.159992,0.613337 0.16,1 -8e-6,0.560003 -0.106674,1.053335 -0.319999,1.48 -0.213342,0.426668 -0.513341,0.780001 -0.900001,1.06 -0.37334,0.28 -0.820006,0.486667 -1.34,0.62 -0.520005,0.146666 -1.086671,0.22 -1.699999,0.22 -0.453337,0 -0.86667,-0.03333 -1.240001,-0.1 C 78.66656,33.606667 78.34656,33.54 78.066563,33.46 77.799894,33.38 77.573228,33.3 77.386562,33.22 77.213228,33.126667 77.079895,33.053334 76.986563,33 l 0.72,-1.52 c 0.09333,0.05334 0.219998,0.120002 0.379999,0.2 0.173332,0.08 0.373332,0.160002 0.6,0.24 0.239998,0.08 0.499998,0.146668 0.78,0.2 0.279997,0.05334 0.57333,0.08 0.880001,0.08"
         id="path3237"
         style="font-size:20px;font-style:italic;font-weight:normal;text-anchor:start;fill:#666666;stroke:#000000;stroke-width:0;font-family:Ubuntu" />
      <path
         d="m 87.84875,33.5 -1.86,0 2.5,-10.4 1.86,0 -2.5,10.4 m 2.16,-12.28 c -0.306672,1.2e-5 -0.566672,-0.09332 -0.78,-0.28 -0.200005,-0.186654 -0.300004,-0.446654 -0.3,-0.78 -4e-6,-0.426653 0.133329,-0.759986 0.4,-1 0.266662,-0.253319 0.566661,-0.379985 0.9,-0.38 0.306661,1.5e-5 0.56666,0.100015 0.78,0.3 0.213327,0.186681 0.319993,0.453347 0.32,0.8 -7e-6,0.400013 -0.140007,0.72668 -0.42,0.98 -0.280006,0.240012 -0.580006,0.360012 -0.9,0.36"
         id="path3239"
         style="font-size:20px;font-style:italic;font-weight:normal;text-anchor:start;fill:#666666;stroke:#000000;stroke-width:0;font-family:Ubuntu" />
      <path
         d="m 94.509687,33.78 c -1.000004,0 -1.733336,-0.22 -2.2,-0.66 -0.466669,-0.439999 -0.700002,-1.079999 -0.699999,-1.92 -3e-6,-0.546664 0.09333,-1.246663 0.279999,-2.1 l 2.14,-8.9 1.940001,-0.32 -0.78,3.22 3.539999,0 -0.379999,1.56 -3.540001,0 -1.1,4.6 c -0.160004,0.62667 -0.240004,1.173336 -0.239999,1.64 -5e-6,0.440002 0.119995,0.760002 0.36,0.96 0.239995,0.186668 0.639994,0.280001 1.199999,0.28 0.386661,10e-7 0.766661,-0.06 1.14,-0.18 0.373327,-0.133332 0.659993,-0.253332 0.86,-0.36 l 0.14,1.58 c -0.200007,0.12 -0.540007,0.246667 -1.02,0.38 -0.480006,0.146666 -1.026672,0.22 -1.64,0.22"
         id="path3241"
         style="font-size:20px;font-style:italic;font-weight:normal;text-anchor:start;fill:#666666;stroke:#000000;stroke-width:0;font-family:Ubuntu" />
      <path
         d="m 101.16594,28.04 c 0.77333,-0.02666 1.47999,-0.07333 2.12,-0.14 0.63999,-0.07999 1.19332,-0.206661 1.66,-0.38 0.46666,-0.186661 0.82666,-0.433327 1.08,-0.74 0.26665,-0.30666 0.39999,-0.706659 0.4,-1.2 -1e-5,-0.119992 -0.0267,-0.246659 -0.08,-0.38 -0.04,-0.133325 -0.12001,-0.253325 -0.24,-0.36 -0.10668,-0.119991 -0.26001,-0.213324 -0.46,-0.28 -0.20001,-0.07999 -0.44668,-0.119991 -0.74,-0.12 -0.46668,9e-6 -0.90668,0.100009 -1.32,0.3 -0.40001,0.200009 -0.76001,0.466675 -1.08,0.8 -0.32001,0.320008 -0.59334,0.700007 -0.82,1.14 -0.22667,0.426673 -0.40001,0.880006 -0.52,1.36 m 1.9,5.72 c -0.68001,0 -1.26667,-0.09333 -1.76,-0.28 -0.49334,-0.2 -0.90667,-0.466666 -1.24,-0.8 -0.333338,-0.346666 -0.580005,-0.746665 -0.740003,-1.2 -0.160002,-0.453331 -0.240001,-0.93333 -0.24,-1.44 -10e-7,-0.933329 0.139998,-1.833328 0.420001,-2.7 0.279997,-0.86666 0.679992,-1.633326 1.200002,-2.3 0.51999,-0.666658 1.15333,-1.193324 1.9,-1.58 0.74666,-0.39999 1.59332,-0.599989 2.54,-0.6 0.54666,1.1e-5 1.01332,0.07334 1.4,0.22 0.39999,0.133344 0.71999,0.32001 0.96,0.56 0.25332,0.24001 0.43999,0.520009 0.56,0.84 0.11999,0.306675 0.17999,0.626675 0.18,0.96 -1e-5,0.626674 -0.11335,1.160007 -0.34,1.6 -0.22668,0.426673 -0.52668,0.786672 -0.9,1.08 -0.37335,0.293338 -0.81334,0.520005 -1.32,0.68 -0.49334,0.160005 -1.01334,0.286671 -1.56,0.38 -0.53334,0.09334 -1.08001,0.160004 -1.64,0.2 -0.54667,0.02667 -1.06667,0.05334 -1.56,0.08 -0.0133,0.106671 -0.02,0.193337 -0.02,0.26 -1e-5,0.06667 -1e-5,0.120004 0,0.16 -1e-5,0.30667 0.0333,0.600003 0.1,0.88 0.08,0.266669 0.21999,0.506669 0.42,0.72 0.19999,0.200002 0.47333,0.360002 0.82,0.48 0.35999,0.120001 0.82666,0.180001 1.4,0.18 0.25332,10e-7 0.51332,-0.02 0.78,-0.06 0.27999,-0.05333 0.53999,-0.113332 0.78,-0.18 0.25332,-0.08 0.47332,-0.153332 0.66,-0.22 0.19999,-0.08 0.33999,-0.153331 0.42,-0.22 l 0.16,1.58 c -0.26668,0.146667 -0.70001,0.3 -1.3,0.46 -0.58668,0.173333 -1.28001,0.26 -2.08,0.26"
         id="path3243"
         style="font-size:20px;font-style:italic;font-weight:normal;text-anchor:start;fill:#666666;stroke:#000000;stroke-width:0;font-family:Ubuntu" />
    </g>
    <g
       id="text3214"
       style="font-size:20px;font-style:italic;font-weight:normal;text-anchor:start;fill:#ffffff;stroke:#000000;stroke-width:0;font-family:Ubuntu">
      <path
         d="m 19.48,20.88 c 0.159992,1.1e-5 0.339992,0.0067 0.54,0.02 0.199992,0.01334 0.393325,0.04001 0.58,0.08 0.199991,0.02668 0.379991,0.06001 0.54,0.1 0.159991,0.02668 0.279991,0.06001 0.36,0.1 l -0.54,1.62 c -0.266675,-0.106658 -0.573342,-0.186658 -0.92,-0.24 -0.346674,-0.05332 -0.680007,-0.07999 -1,-0.08 -0.280007,9e-6 -0.560006,0.02001 -0.84,0.06 -0.266673,0.04001 -0.500006,0.09334 -0.7,0.16 l -2.12,8.8 -1.86,0 2.4,-10 c 0.533329,-0.186656 1.106662,-0.333323 1.72,-0.44 0.613327,-0.119989 1.22666,-0.179989 1.84,-0.18"
         id="path3246"
         style="font-size:20px;font-style:italic;font-weight:normal;text-anchor:start;fill:#ffffff;stroke:#000000;stroke-width:0;font-family:Ubuntu" />
      <path
         d="m 22.801875,31.5 -1.86,0 2.5,-10.4 1.86,0 -2.5,10.4 m 2.16,-12.28 c -0.306672,1.2e-5 -0.566672,-0.09332 -0.78,-0.28 -0.200005,-0.186654 -0.300004,-0.446654 -0.3,-0.78 -4e-6,-0.426653 0.133329,-0.759986 0.4,-1 0.266662,-0.253319 0.566661,-0.379985 0.9,-0.38 0.306661,1.5e-5 0.56666,0.100015 0.78,0.3 0.213327,0.186681 0.319993,0.453347 0.32,0.8 -7e-6,0.400013 -0.140007,0.72668 -0.42,0.98 -0.280006,0.240012 -0.580006,0.360012 -0.9,0.36"
         id="path3248"
         style="font-size:20px;font-style:italic;font-weight:normal;text-anchor:start;fill:#ffffff;stroke:#000000;stroke-width:0;font-family:Ubuntu" />
      <path
         d="m 29.462812,31.78 c -1.000004,0 -1.733336,-0.22 -2.2,-0.66 -0.466669,-0.439999 -0.700002,-1.079999 -0.7,-1.92 -2e-6,-0.546664 0.09333,-1.246663 0.28,-2.1 l 2.140001,-8.9 1.939999,-0.32 -0.779999,3.22 3.539999,0 -0.379999,1.56 -3.54,0 -1.100001,4.6 c -0.160004,0.62667 -0.240004,1.173336 -0.24,1.64 -4e-6,0.440002 0.119996,0.760002 0.36,0.96 0.239996,0.186668 0.639995,0.280001 1.200001,0.28 0.38666,1e-6 0.76666,-0.06 1.14,-0.18 0.373326,-0.133332 0.659992,-0.253332 0.86,-0.36 l 0.14,1.58 c -0.200008,0.12 -0.540008,0.246667 -1.020001,0.38 -0.480006,0.146666 -1.026672,0.22 -1.64,0.22"
         id="path3250"
         style="font-size:20px;font-style:italic;font-weight:normal;text-anchor:start;fill:#ffffff;stroke:#000000;stroke-width:0;font-family:Ubuntu" />
      <path
         d="m 36.119062,26.04 c 0.773329,-0.02666 1.479995,-0.07333 2.120001,-0.14 0.639993,-0.07999 1.193325,-0.206661 1.659999,-0.38 0.466659,-0.186661 0.826658,-0.433327 1.08,-0.74 0.266658,-0.30666 0.399991,-0.706659 0.400001,-1.2 -1e-5,-0.119992 -0.02668,-0.246659 -0.08,-0.38 -0.04001,-0.133325 -0.120009,-0.253325 -0.24,-0.36 -0.106675,-0.119991 -0.260008,-0.213324 -0.459999,-0.28 -0.200009,-0.07999 -0.446675,-0.119991 -0.740001,-0.12 -0.466674,9e-6 -0.906673,0.100009 -1.32,0.3 -0.400006,0.200009 -0.760005,0.466675 -1.079999,0.8 -0.320006,0.320008 -0.593339,0.700007 -0.82,1.14 -0.226672,0.426673 -0.400005,0.880006 -0.520001,1.36 m 1.9,5.72 c -0.680005,0 -1.266671,-0.09333 -1.76,-0.28 -0.493337,-0.2 -0.906669,-0.466666 -1.24,-0.8 -0.333335,-0.346666 -0.580002,-0.746665 -0.739999,-1.2 -0.160003,-0.453331 -0.240003,-0.93333 -0.240001,-1.44 -2e-6,-0.933329 0.139998,-1.833328 0.420001,-2.7 0.279997,-0.86666 0.679996,-1.633326 1.199999,-2.3 0.519996,-0.666658 1.153329,-1.193324 1.900001,-1.58 0.74666,-0.39999 1.593326,-0.599989 2.54,-0.6 0.546658,1.1e-5 1.013324,0.07334 1.399999,0.22 0.399991,0.133344 0.71999,0.32001 0.960001,0.56 0.253322,0.24001 0.439989,0.520009 0.56,0.84 0.119988,0.306675 0.179988,0.626675 0.179999,0.96 -1.1e-5,0.626674 -0.113344,1.160007 -0.34,1.6 -0.226677,0.426673 -0.526676,0.786672 -0.899999,1.08 -0.373343,0.293338 -0.813343,0.520005 -1.32,0.68 -0.493342,0.160005 -1.013341,0.286671 -1.560001,0.38 -0.533339,0.09334 -1.080005,0.160004 -1.64,0.2 -0.546671,0.02667 -1.066671,0.05334 -1.559999,0.08 -0.01334,0.106671 -0.02,0.193337 -0.02,0.26 -3e-6,0.06667 -3e-6,0.120004 0,0.16 -3e-6,0.30667 0.03333,0.600003 0.100001,0.88 0.08,0.266669 0.219995,0.506669 0.42,0.72 0.199995,0.200002 0.473328,0.360002 0.819999,0.48 0.359995,0.120001 0.826661,0.180001 1.400001,0.18 0.253326,1e-6 0.513326,-0.02 0.78,-0.06 0.279992,-0.05333 0.539992,-0.113332 0.78,-0.18 0.253324,-0.08 0.473324,-0.153332 0.659999,-0.22 0.199992,-0.08 0.339991,-0.153331 0.420001,-0.22 l 0.159999,1.58 c -0.266675,0.146667 -0.700008,0.3 -1.299999,0.46 -0.586675,0.173333 -1.280007,0.26 -2.080001,0.26"
         id="path3252"
         style="font-size:20px;font-style:italic;font-weight:normal;text-anchor:start;fill:#ffffff;stroke:#000000;stroke-width:0;font-family:Ubuntu" />
      <path
         d="m 55.950625,20.88 c 0.586653,1.1e-5 1.079985,0.09334 1.48,0.28 0.413318,0.173343 0.739984,0.413343 0.98,0.72 0.253317,0.306676 0.433317,0.666676 0.54,1.08 0.10665,0.400008 0.159983,0.826674 0.16,1.28 -1.7e-5,0.29334 -0.02668,0.61334 -0.08,0.96 -0.04002,0.333339 -0.100017,0.660006 -0.18,0.98 l -1.28,5.32 -1.86,0 1.18,-4.92 c 0.06665,-0.306661 0.139985,-0.646661 0.22,-1.02 0.09332,-0.38666 0.139985,-0.76666 0.14,-1.14 -1.5e-5,-0.253326 -0.03335,-0.499992 -0.1,-0.74 -0.05335,-0.239992 -0.153348,-0.446658 -0.3,-0.62 -0.133348,-0.173325 -0.326681,-0.313325 -0.58,-0.42 -0.253347,-0.106658 -0.56668,-0.159991 -0.94,-0.16 -0.426679,9e-6 -0.840012,0.08668 -1.24,0.26 -0.400011,0.160009 -0.733344,0.326675 -1,0.5 0.02666,0.186675 0.04666,0.373341 0.06,0.56 0.02666,0.173341 0.03999,0.346674 0.04,0.52 -1.1e-5,0.306674 -0.02668,0.620007 -0.08,0.94 -0.04001,0.306673 -0.09334,0.613339 -0.16,0.92 l -1.28,5.32 -1.86,0 1.18,-4.92 c 0.06666,-0.306661 0.139991,-0.653328 0.22,-1.04 0.07999,-0.38666 0.119991,-0.773327 0.12,-1.16 -9e-6,-0.253326 -0.02668,-0.493326 -0.08,-0.72 -0.05334,-0.239992 -0.146675,-0.446658 -0.28,-0.62 -0.120008,-0.173325 -0.286675,-0.306658 -0.5,-0.4 -0.213341,-0.106658 -0.486674,-0.159991 -0.82,-0.16 -0.33334,9e-6 -0.660007,0.02001 -0.98,0.06 -0.306673,0.04001 -0.566672,0.09334 -0.78,0.16 l -2.12,8.8 -1.86,0 2.4,-10 c 0.599995,-0.186656 1.253328,-0.333323 1.96,-0.44 0.719993,-0.119989 1.359993,-0.179989 1.92,-0.18 0.559992,1.1e-5 1.033325,0.100011 1.42,0.3 0.386657,0.186677 0.693323,0.44001 0.92,0.76 0.133323,-0.09332 0.313323,-0.19999 0.54,-0.32 0.239989,-0.11999 0.506655,-0.233323 0.8,-0.34 0.306655,-0.106656 0.633321,-0.19999 0.98,-0.28 0.359987,-0.07999 0.726653,-0.119989 1.1,-0.12"
         id="path3254"
         style="font-size:20px;font-style:italic;font-weight:normal;text-anchor:start;fill:#ffffff;stroke:#000000;stroke-width:0;font-family:Ubuntu" />
      <path
         d="m 63.033125,26.04 c 0.773328,-0.02666 1.479994,-0.07333 2.12,-0.14 0.639993,-0.07999 1.193326,-0.206661 1.66,-0.38 0.466658,-0.186661 0.826658,-0.433327 1.08,-0.74 0.266657,-0.30666 0.399991,-0.706659 0.4,-1.2 -9e-6,-0.119992 -0.02668,-0.246659 -0.08,-0.38 -0.04001,-0.133325 -0.120009,-0.253325 -0.24,-0.36 -0.106676,-0.119991 -0.260009,-0.213324 -0.46,-0.28 -0.200008,-0.07999 -0.446675,-0.119991 -0.74,-0.12 -0.466674,9e-6 -0.906674,0.100009 -1.32,0.3 -0.400006,0.200009 -0.760006,0.466675 -1.08,0.8 -0.320005,0.320008 -0.593338,0.700007 -0.82,1.14 -0.226671,0.426673 -0.400004,0.880006 -0.52,1.36 m 1.9,5.72 c -0.680005,0 -1.266671,-0.09333 -1.76,-0.28 -0.493337,-0.2 -0.90667,-0.466666 -1.24,-0.8 -0.333336,-0.346666 -0.580002,-0.746665 -0.74,-1.2 -0.160002,-0.453331 -0.240002,-0.93333 -0.24,-1.44 -2e-6,-0.933329 0.139998,-1.833328 0.42,-2.7 0.279997,-0.86666 0.679997,-1.633326 1.2,-2.3 0.519996,-0.666658 1.153329,-1.193324 1.9,-1.58 0.74666,-0.39999 1.593326,-0.599989 2.54,-0.6 0.546658,1.1e-5 1.013324,0.07334 1.4,0.22 0.39999,0.133344 0.71999,0.32001 0.96,0.56 0.253323,0.24001 0.439989,0.520009 0.56,0.84 0.119989,0.306675 0.179989,0.626675 0.18,0.96 -1.1e-5,0.626674 -0.113344,1.160007 -0.34,1.6 -0.226677,0.426673 -0.526677,0.786672 -0.9,1.08 -0.373343,0.293338 -0.813342,0.520005 -1.32,0.68 -0.493341,0.160005 -1.013341,0.286671 -1.56,0.38 -0.53334,0.09334 -1.080006,0.160004 -1.64,0.2 -0.546672,0.02667 -1.066671,0.05334 -1.56,0.08 -0.01334,0.106671 -0.02,0.193337 -0.02,0.26 -4e-6,0.06667 -4e-6,0.120004 0,0.16 -4e-6,0.30667 0.03333,0.600003 0.1,0.88 0.08,0.266669 0.219996,0.506669 0.42,0.72 0.199995,0.200002 0.473329,0.360002 0.82,0.48 0.359994,0.120001 0.826661,0.180001 1.4,0.18 0.253327,1e-6 0.513326,-0.02 0.78,-0.06 0.279992,-0.05333 0.539992,-0.113332 0.78,-0.18 0.253325,-0.08 0.473325,-0.153332 0.66,-0.22 0.199991,-0.08 0.339991,-0.153331 0.42,-0.22 l 0.16,1.58 c -0.266676,0.146667 -0.700009,0.3 -1.3,0.46 -0.586674,0.173333 -1.280007,0.26 -2.08,0.26"
         id="path3256"
         style="font-size:20px;font-style:italic;font-weight:normal;text-anchor:start;fill:#ffffff;stroke:#000000;stroke-width:0;font-family:Ubuntu" />
      <path
         d="m 71.864688,31.76 c -0.373336,0 -0.666669,-0.1 -0.88,-0.3 -0.213335,-0.2 -0.320002,-0.493333 -0.320001,-0.88 -10e-7,-0.479999 0.139999,-0.846665 0.42,-1.1 0.293332,-0.266664 0.626665,-0.399998 1,-0.4 0.373331,2e-6 0.666664,0.106669 0.88,0.32 0.226663,0.200002 0.339996,0.500002 0.34,0.9 -4e-6,0.226668 -0.04667,0.433334 -0.14,0.62 -0.08,0.173334 -0.18667,0.326667 -0.319999,0.46 -0.133337,0.12 -0.28667,0.213333 -0.460001,0.28 -0.173336,0.06667 -0.346669,0.1 -0.519999,0.1"
         id="path3258"
         style="font-size:20px;font-style:italic;font-weight:normal;text-anchor:start;fill:#ffffff;stroke:#000000;stroke-width:0;font-family:Ubuntu" />
      <path
         d="m 78.346563,30.2 c 0.279995,1e-6 0.559995,-0.02666 0.839999,-0.08 0.293329,-0.05333 0.546662,-0.139998 0.76,-0.26 0.226661,-0.119998 0.406661,-0.279998 0.540001,-0.48 0.14666,-0.213331 0.219993,-0.473331 0.22,-0.78 -7e-6,-0.199997 -0.03334,-0.37333 -0.100001,-0.52 -0.06667,-0.159996 -0.173339,-0.306663 -0.319999,-0.44 -0.146673,-0.133329 -0.33334,-0.259996 -0.560001,-0.38 -0.213338,-0.133329 -0.473338,-0.279995 -0.78,-0.44 -0.306671,-0.146662 -0.58667,-0.293328 -0.84,-0.44 -0.253336,-0.146661 -0.480003,-0.319995 -0.679999,-0.52 -0.18667,-0.199994 -0.333337,-0.433327 -0.44,-0.7 -0.10667,-0.279993 -0.160003,-0.613326 -0.160001,-1 -2e-6,-0.999992 0.359998,-1.799991 1.080001,-2.4 0.719995,-0.613323 1.766661,-0.919989 3.139999,-0.92 0.639993,1.1e-5 1.199992,0.06668 1.68,0.2 0.493325,0.12001 0.833325,0.233344 1.02,0.34 l -0.7,1.52 c -0.186675,-0.106658 -0.486674,-0.219991 -0.899999,-0.34 -0.413341,-0.119991 -0.873341,-0.179991 -1.38,-0.18 -0.25334,9e-6 -0.506673,0.02668 -0.760001,0.08 -0.253338,0.05334 -0.486671,0.146676 -0.7,0.28 -0.200004,0.120009 -0.366671,0.286675 -0.5,0.5 -0.120004,0.200008 -0.180004,0.446674 -0.179999,0.74 -5e-6,0.360007 0.139995,0.660007 0.419999,0.9 0.279995,0.226673 0.699995,0.466673 1.26,0.72 0.346661,0.160006 0.653327,0.326672 0.92,0.5 0.279993,0.160005 0.513326,0.346672 0.700001,0.56 0.199992,0.200005 0.346658,0.440004 0.439999,0.72 0.106659,0.280004 0.159992,0.613337 0.16,1 -8e-6,0.560003 -0.106674,1.053335 -0.319999,1.48 -0.213342,0.426668 -0.513341,0.780001 -0.900001,1.06 -0.37334,0.28 -0.820006,0.486667 -1.34,0.62 -0.520005,0.146666 -1.086671,0.22 -1.699999,0.22 -0.453337,0 -0.86667,-0.03333 -1.240001,-0.1 C 76.66656,31.606667 76.34656,31.54 76.066563,31.46 75.799894,31.38 75.573228,31.3 75.386562,31.22 75.213228,31.126667 75.079895,31.053334 74.986563,31 l 0.72,-1.52 c 0.09333,0.05334 0.219998,0.120002 0.379999,0.2 0.173332,0.08 0.373332,0.160002 0.6,0.24 0.239998,0.08 0.499998,0.146668 0.78,0.2 0.279997,0.05334 0.57333,0.08 0.880001,0.08"
         id="path3260"
         style="font-size:20px;font-style:italic;font-weight:normal;text-anchor:start;fill:#ffffff;stroke:#000000;stroke-width:0;font-family:Ubuntu" />
      <path
         d="m 85.84875,31.5 -1.86,0 2.5,-10.4 1.86,0 -2.5,10.4 m 2.16,-12.28 c -0.306672,1.2e-5 -0.566672,-0.09332 -0.78,-0.28 -0.200005,-0.186654 -0.300004,-0.446654 -0.3,-0.78 -4e-6,-0.426653 0.133329,-0.759986 0.4,-1 0.266662,-0.253319 0.566661,-0.379985 0.9,-0.38 0.306661,1.5e-5 0.56666,0.100015 0.78,0.3 0.213327,0.186681 0.319993,0.453347 0.32,0.8 -7e-6,0.400013 -0.140007,0.72668 -0.42,0.98 -0.280006,0.240012 -0.580006,0.360012 -0.9,0.36"
         id="path3262"
         style="font-size:20px;font-style:italic;font-weight:normal;text-anchor:start;fill:#ffffff;stroke:#000000;stroke-width:0;font-family:Ubuntu" />
      <path
         d="m 92.509687,31.78 c -1.000004,0 -1.733336,-0.22 -2.2,-0.66 -0.466669,-0.439999 -0.700002,-1.079999 -0.699999,-1.92 -3e-6,-0.546664 0.09333,-1.246663 0.279999,-2.1 l 2.14,-8.9 1.940001,-0.32 -0.78,3.22 3.539999,0 -0.379999,1.56 -3.540001,0 -1.1,4.6 c -0.160004,0.62667 -0.240004,1.173336 -0.239999,1.64 -5e-6,0.440002 0.119995,0.760002 0.36,0.96 0.239995,0.186668 0.639994,0.280001 1.199999,0.28 0.386661,1e-6 0.766661,-0.06 1.14,-0.18 0.373327,-0.133332 0.659993,-0.253332 0.86,-0.36 l 0.14,1.58 c -0.200007,0.12 -0.540007,0.246667 -1.02,0.38 -0.480006,0.146666 -1.026672,0.22 -1.64,0.22"
         id="path3264"
         style="font-size:20px;font-style:italic;font-weight:normal;text-anchor:start;fill:#ffffff;stroke:#000000;stroke-width:0;font-family:Ubuntu" />
      <path
         d="m 99.165937,26.04 c 0.773329,-0.02666 1.479993,-0.07333 2.120003,-0.14 0.63999,-0.07999 1.19332,-0.206661 1.66,-0.38 0.46666,-0.186661 0.82666,-0.433327 1.08,-0.74 0.26665,-0.30666 0.39999,-0.706659 0.4,-1.2 -1e-5,-0.119992 -0.0267,-0.246659 -0.08,-0.38 -0.04,-0.133325 -0.12001,-0.253325 -0.24,-0.36 -0.10668,-0.119991 -0.26001,-0.213324 -0.46,-0.28 -0.20001,-0.07999 -0.44668,-0.119991 -0.74,-0.12 -0.46668,9e-6 -0.90668,0.100009 -1.32,0.3 -0.40001,0.200009 -0.76001,0.466675 -1.08,0.8 -0.32001,0.320008 -0.593341,0.700007 -0.820003,1.14 -0.226671,0.426673 -0.400004,0.880006 -0.52,1.36 m 1.900003,5.72 c -0.68001,0 -1.266674,-0.09333 -1.760003,-0.28 -0.493337,-0.2 -0.906669,-0.466666 -1.239999,-0.8 -0.333336,-0.346666 -0.580003,-0.746665 -0.740001,-1.2 -0.160002,-0.453331 -0.240001,-0.93333 -0.24,-1.44 -10e-7,-0.933329 0.139998,-1.833328 0.420001,-2.7 0.279997,-0.86666 0.679996,-1.633326 1.2,-2.3 0.519995,-0.666658 1.153328,-1.193324 1.900002,-1.58 0.74666,-0.39999 1.59332,-0.599989 2.54,-0.6 0.54666,1.1e-5 1.01332,0.07334 1.4,0.22 0.39999,0.133344 0.71999,0.32001 0.96,0.56 0.25332,0.24001 0.43999,0.520009 0.56,0.84 0.11999,0.306675 0.17999,0.626675 0.18,0.96 -1e-5,0.626674 -0.11335,1.160007 -0.34,1.6 -0.22668,0.426673 -0.52668,0.786672 -0.9,1.08 -0.37335,0.293338 -0.81334,0.520005 -1.32,0.68 -0.49334,0.160005 -1.01334,0.286671 -1.56,0.38 -0.53334,0.09334 -1.08001,0.160004 -1.64,0.2 -0.546674,0.02667 -1.066673,0.05334 -1.560002,0.08 -0.01334,0.106671 -0.02,0.193337 -0.02,0.26 -3e-6,0.06667 -3e-6,0.120004 0,0.16 -3e-6,0.30667 0.03333,0.600003 0.100001,0.88 0.07999,0.266669 0.219995,0.506669 0.42,0.72 0.199995,0.200002 0.473328,0.360002 0.820001,0.48 0.35999,0.120001 0.82666,0.180001 1.4,0.18 0.25332,1e-6 0.51332,-0.02 0.78,-0.06 0.27999,-0.05333 0.53999,-0.113332 0.78,-0.18 0.25332,-0.08 0.47332,-0.153332 0.66,-0.22 0.19999,-0.08 0.33999,-0.153331 0.42,-0.22 l 0.16,1.58 c -0.26668,0.146667 -0.70001,0.3 -1.3,0.46 -0.58668,0.173333 -1.28001,0.26 -2.08,0.26"
         id="path3266"
         style="font-size:20px;font-style:italic;font-weight:normal;text-anchor:start;fill:#ffffff;stroke:#000000;stroke-width:0;font-family:Ubuntu" />
    </g>
  </g>
</svg>
